<?xml version="1.0" standalone="no"?>
<!DOCTYPE svg PUBLIC "-//W3C//DTD SVG 20010904//EN"
 "http://www.w3.org/TR/2001/REC-SVG-20010904/DTD/svg10.dtd">
<svg version="1.0" xmlns="http://www.w3.org/2000/svg"
 width="1024.000000pt" height="1024.000000pt" viewBox="0 0 1024.000000 1024.000000"
 preserveAspectRatio="xMidYMid meet">

<g transform="translate(0.000000,1024.000000) scale(0.100000,-0.100000)"
fill="#003932" stroke="none">
<path d="M4780 8693 c-572 -61 -1071 -225 -1580 -521 -704 -409 -1292 -1107
-1578 -1873 -136 -364 -222 -843 -222 -1236 0 -672 191 -1338 542 -1892 238
-375 600 -756 943 -992 441 -304 954 -526 1437 -623 321 -64 475 -79 788 -73
294 5 394 17 690 77 463 95 956 311 1383 607 185 128 304 228 478 402 386 387
644 795 830 1314 83 231 166 636 189 911 28 354 -4 761 -86 1106 -33 135 -132
432 -185 552 -209 476 -533 930 -914 1279 -319 293 -785 577 -1216 739 -423
161 -808 231 -1244 228 -121 -1 -236 -3 -255 -5z m374 -1188 c412 -617 701
-1304 786 -1864 45 -300 46 -557 4 -846 -31 -211 -108 -473 -185 -626 -94
-189 -263 -397 -395 -486 -59 -40 -184 -107 -184 -99 0 2 24 40 54 83 101 147
175 321 237 561 75 290 78 673 9 987 -42 190 -137 451 -232 637 -61 120 -184
318 -198 318 -4 0 -25 -24 -47 -52 -182 -245 -333 -614 -402 -983 -99 -530 -3
-1085 252 -1464 32 -46 57 -86 57 -88 0 -6 -107 55 -170 98 -300 201 -520 621
-597 1134 -27 185 -25 620 5 811 95 606 360 1232 810 1908 l85 128 19 -23 c10
-13 51 -74 92 -134z m-1748 -412 c167 -114 223 -161 375 -312 168 -169 339
-383 339 -425 0 -8 -13 -48 -30 -89 -66 -165 -139 -472 -166 -697 -39 -321
-17 -684 56 -958 31 -115 99 -298 127 -340 32 -51 1 -28 -93 70 -285 296 -504
649 -638 1028 -50 139 -103 358 -121 498 -22 164 -19 442 7 711 12 127 22 304
22 404 1 118 4 177 11 177 6 0 56 -30 111 -67z m3397 -40 c-5 -105 1 -213 32
-533 29 -296 17 -609 -31 -855 -51 -260 -216 -643 -388 -900 -124 -187 -342
-445 -426 -505 -27 -19 -27 -19 12 58 44 88 98 248 128 373 110 470 59 1084
-131 1572 l-39 101 26 40 c132 201 375 460 563 599 53 39 240 155 252 156 4 1
4 -47 2 -106z m-4734 -773 c174 -41 434 -136 606 -222 94 -47 266 -153 331
-203 l59 -46 1 -197 c1 -224 16 -345 69 -549 138 -529 440 -977 863 -1280 154
-111 438 -243 627 -292 43 -12 80 -23 82 -25 2 -2 -33 -9 -79 -16 -57 -9 -150
-11 -288 -7 -178 4 -225 9 -354 36 -359 76 -669 215 -933 420 -98 76 -287 263
-359 356 -265 339 -432 749 -560 1378 -49 245 -121 473 -193 615 -17 34 -31
63 -31 66 0 2 15 1 33 -4 17 -4 74 -18 126 -30z m6074 -52 c-77 -159 -149
-400 -212 -713 -75 -373 -216 -766 -365 -1019 -164 -279 -429 -555 -691 -721
-227 -143 -463 -237 -747 -297 -151 -32 -156 -33 -423 -32 -161 0 -282 4 -300
11 -29 10 -28 11 45 32 455 134 759 330 1048 676 196 234 363 557 442 856 63
238 73 315 75 564 l3 229 123 83 c205 137 488 269 739 344 94 28 294 76 299
73 2 -2 -14 -40 -36 -86z m-6213 -2205 c298 -200 764 -427 1140 -554 311 -106
601 -174 854 -199 114 -12 464 -8 546 5 l35 6 -30 -26 c-88 -75 -338 -196
-507 -244 -164 -47 -262 -62 -438 -68 -401 -13 -740 81 -1055 292 -253 169
-430 360 -600 647 -59 97 -125 236 -125 260 0 5 17 -3 38 -19 20 -16 84 -61
142 -100z m6353 -15 c-141 -291 -347 -542 -600 -732 -101 -75 -318 -190 -443
-234 -459 -160 -962 -130 -1395 83 -123 60 -261 143 -252 151 2 2 37 0 78 -6
115 -15 429 -12 569 5 610 75 1393 388 2005 802 50 33 92 59 94 57 2 -2 -23
-58 -56 -126z m-3313 -702 c-31 -95 -100 -225 -167 -313 -164 -219 -358 -356
-633 -447 -185 -61 -251 -71 -480 -71 -185 1 -216 3 -315 27 -121 29 -272 81
-301 104 -18 13 -17 14 11 7 55 -14 394 -7 520 11 499 71 955 306 1300 667 44
47 82 83 84 82 1 -1 -7 -31 -19 -67z m415 -200 c353 -287 766 -452 1245 -497
114 -11 324 -7 390 6 14 3 -7 -11 -46 -30 -252 -122 -646 -150 -959 -68 -196
51 -354 129 -512 252 -153 120 -290 300 -359 475 -53 135 -53 135 53 31 54
-53 139 -129 188 -169z"/>
</g>
</svg>
